# xmcd CD database file
#
# Track frame offsets:
#	150
#	15209
#	29972
#	48334
#	68158
#	82960
#	99700
#	114614
#	130668
#	147251
#	160729
#	178447
#	193808
#	211212
#	226722
#	242012
#	258372
#	273691
#	288597
#	304089
#
# Disc length: 4290 seconds
#
# Revision: 0
# Processed by: cddbd v1.4PL0 Copyright (c) Steve Scherf et al.
# Submitted via: CDex 1.51
#
DISCID=2210c014
DTITLE=The Bellamy Brothers - Greatest Hits
DYEAR=1994
DGENRE=Country
TTITLE0=The Bellamy Brothers - Let Your Love Flow
TTITLE1=The Bellamy Brothers - If I Said You Had A Beautiful Body (Would You Hold It Against Me)
TTITLE2=The Bellamy Brothers - Old Hippie
TTITLE3=The Bellamy Brothers - You Ain't Just Whistlin' Dixie
TTITLE4=The Bellamy Brothers - Dancin' Cowboys
TTITLE5=The Bellamy Brothers - Sugar Daddy
TTITLE6=The Bellamy Brothers - Lovers Live Longer
TTITLE7=The Bellamy Brothers - Crazy From The Heart (1)
TTITLE8=The Bellamy Brothers - Feelin' The Feelin'
TTITLE9=The Bellamy Brothers - Do You Love As Good As You Look
TTITLE10=The Bellamy Brothers - For All The Wrong Reasons
TTITLE11=The Bellamy Brothers - Redneck Girl
TTITLE12=The Bellamy Brothers - When I'm Away From You
TTITLE13=The Bellamy Brothers - I'd Lie To You For Your Love
TTITLE14=The Bellamy Brothers - You'll Never Be Sorry
TTITLE15=The Bellamy Brothers - Santa Fe
TTITLE16=The Bellamy Brothers - I Need More Of You
TTITLE17=The Bellamy Brothers - Big Love
TTITLE18=The Bellamy Brothers - Kids Of The Baby Boom
TTITLE19=The Bellamy Brothers - Get Into Reggae Cowboy
EXTD=YEAR: 1994
EXTT0=
EXTT1=
EXTT2=
EXTT3=
EXTT4=
EXTT5=
EXTT6=
EXTT7=
EXTT8=
EXTT9=
EXTT10=
EXTT11=
EXTT12=
EXTT13=
EXTT14=
EXTT15=
EXTT16=
EXTT17=
EXTT18=
EXTT19=
PLAYORDER=
